# xmcd
#
# Track frame offsets:
#	150
#	13257
#	24137
#	35719
#	47418
#	58353
#	70986
#	82392
#	93921
#	102489
#	111998
#	122007
#	131700
#	143629
#	154894
#	167370
#
# Disc length: 2383 seconds
#
# Revision: 1
# Processed by: cddbd v1.5.2PL0 Copyright (c) Steve Scherf et al.
# Submitted via: audiograbber 1.82.02
#
DISCID=df094d10
DTITLE=Stonewall Jackson - The Best Of
DYEAR=1978
DGENRE=Country
TTITLE0=Don't Be Angry
TTITLE1=Mary Don't You Weep
TTITLE2=A Wound Time Can't Eraze
TTITLE3=Blues Plus Booze
TTITLE4=Life To Go
TTITLE5=Old Show Boat
TTITLE6=Angry Words
TTITLE7=If This House Could Talk
TTITLE8=Greener Pastures
TTITLE9=Why I'm Walking
TTITLE10=Promises And Hearts
TTITLE11=That's All The World Needs
TTITLE12=Leona
TTITLE13=Smoke Along The Track
TTITLE14=Blue Field
TTITLE15=Guy Called Joe
EXTD=
EXTT0=
EXTT1=
EXTT2=
EXTT3=
EXTT4=
EXTT5=
EXTT6=
EXTT7=
EXTT8=
EXTT9=
EXTT10=
EXTT11=
EXTT12=
EXTT13=
EXTT14=
EXTT15=
PLAYORDER=
